<mxfile host="Electron" modified="2024-10-23T07:56:59.425Z" agent="Mozilla/5.0 (Windows NT 10.0; Win64; x64) AppleWebKit/537.36 (KHTML, like Gecko) draw.io/24.1.0 Chrome/120.0.6099.109 Electron/28.1.0 Safari/537.36" etag="OPP2MOalYXTIqtEYzSK5" version="24.1.0" type="device">
  <diagram name="Страница — 1" id="rqm6AFlFcoeYDzAMt_E8">
    <mxGraphModel dx="1050" dy="669" grid="1" gridSize="10" guides="1" tooltips="1" connect="1" arrows="1" fold="1" page="1" pageScale="1" pageWidth="827" pageHeight="1169" math="0" shadow="0">
      <root>
        <mxCell id="0" />
        <mxCell id="1" parent="0" />
        <mxCell id="5hOwrHi5-Et3rTQ9NOOK-3" style="edgeStyle=orthogonalEdgeStyle;rounded=0;orthogonalLoop=1;jettySize=auto;html=1;entryX=0.5;entryY=0;entryDx=0;entryDy=0;" edge="1" parent="1" source="5hOwrHi5-Et3rTQ9NOOK-1" target="5hOwrHi5-Et3rTQ9NOOK-2">
          <mxGeometry relative="1" as="geometry" />
        </mxCell>
        <mxCell id="5hOwrHi5-Et3rTQ9NOOK-1" value="&lt;font style=&quot;font-size: 16px;&quot;&gt;1&lt;/font&gt;" style="whiteSpace=wrap;html=1;aspect=fixed;" vertex="1" parent="1">
          <mxGeometry x="340" y="80" width="50" height="50" as="geometry" />
        </mxCell>
        <mxCell id="5hOwrHi5-Et3rTQ9NOOK-8" style="rounded=0;orthogonalLoop=1;jettySize=auto;html=1;exitX=0;exitY=1;exitDx=0;exitDy=0;entryX=1;entryY=0;entryDx=0;entryDy=0;" edge="1" parent="1" source="5hOwrHi5-Et3rTQ9NOOK-2" target="5hOwrHi5-Et3rTQ9NOOK-5">
          <mxGeometry relative="1" as="geometry" />
        </mxCell>
        <mxCell id="5hOwrHi5-Et3rTQ9NOOK-9" style="rounded=0;orthogonalLoop=1;jettySize=auto;html=1;exitX=1;exitY=1;exitDx=0;exitDy=0;entryX=0;entryY=0;entryDx=0;entryDy=0;" edge="1" parent="1" source="5hOwrHi5-Et3rTQ9NOOK-2" target="5hOwrHi5-Et3rTQ9NOOK-7">
          <mxGeometry relative="1" as="geometry" />
        </mxCell>
        <mxCell id="5hOwrHi5-Et3rTQ9NOOK-10" style="edgeStyle=orthogonalEdgeStyle;rounded=0;orthogonalLoop=1;jettySize=auto;html=1;entryX=0.5;entryY=0;entryDx=0;entryDy=0;" edge="1" parent="1" source="5hOwrHi5-Et3rTQ9NOOK-2" target="5hOwrHi5-Et3rTQ9NOOK-6">
          <mxGeometry relative="1" as="geometry" />
        </mxCell>
        <mxCell id="5hOwrHi5-Et3rTQ9NOOK-2" value="&lt;font style=&quot;font-size: 16px;&quot;&gt;2&lt;/font&gt;" style="whiteSpace=wrap;html=1;aspect=fixed;" vertex="1" parent="1">
          <mxGeometry x="340" y="170" width="50" height="50" as="geometry" />
        </mxCell>
        <mxCell id="5hOwrHi5-Et3rTQ9NOOK-4" value="if(...)" style="text;html=1;align=center;verticalAlign=middle;whiteSpace=wrap;rounded=0;fontSize=16;" vertex="1" parent="1">
          <mxGeometry x="384" y="170" width="60" height="30" as="geometry" />
        </mxCell>
        <mxCell id="5hOwrHi5-Et3rTQ9NOOK-13" style="rounded=0;orthogonalLoop=1;jettySize=auto;html=1;exitX=1;exitY=1;exitDx=0;exitDy=0;entryX=0;entryY=0;entryDx=0;entryDy=0;" edge="1" parent="1" source="5hOwrHi5-Et3rTQ9NOOK-5" target="5hOwrHi5-Et3rTQ9NOOK-11">
          <mxGeometry relative="1" as="geometry" />
        </mxCell>
        <mxCell id="5hOwrHi5-Et3rTQ9NOOK-5" value="&lt;span style=&quot;font-size: 16px;&quot;&gt;3&lt;/span&gt;" style="whiteSpace=wrap;html=1;aspect=fixed;" vertex="1" parent="1">
          <mxGeometry x="260" y="260" width="50" height="50" as="geometry" />
        </mxCell>
        <mxCell id="5hOwrHi5-Et3rTQ9NOOK-12" style="edgeStyle=orthogonalEdgeStyle;rounded=0;orthogonalLoop=1;jettySize=auto;html=1;entryX=0.5;entryY=0;entryDx=0;entryDy=0;" edge="1" parent="1" source="5hOwrHi5-Et3rTQ9NOOK-6" target="5hOwrHi5-Et3rTQ9NOOK-11">
          <mxGeometry relative="1" as="geometry" />
        </mxCell>
        <mxCell id="5hOwrHi5-Et3rTQ9NOOK-6" value="&lt;span style=&quot;font-size: 16px;&quot;&gt;4&lt;/span&gt;" style="whiteSpace=wrap;html=1;aspect=fixed;" vertex="1" parent="1">
          <mxGeometry x="340" y="260" width="50" height="50" as="geometry" />
        </mxCell>
        <mxCell id="5hOwrHi5-Et3rTQ9NOOK-14" style="rounded=0;orthogonalLoop=1;jettySize=auto;html=1;exitX=0;exitY=1;exitDx=0;exitDy=0;entryX=1;entryY=0;entryDx=0;entryDy=0;" edge="1" parent="1" source="5hOwrHi5-Et3rTQ9NOOK-7" target="5hOwrHi5-Et3rTQ9NOOK-11">
          <mxGeometry relative="1" as="geometry" />
        </mxCell>
        <mxCell id="5hOwrHi5-Et3rTQ9NOOK-7" value="&lt;span style=&quot;font-size: 16px;&quot;&gt;5&lt;/span&gt;" style="whiteSpace=wrap;html=1;aspect=fixed;" vertex="1" parent="1">
          <mxGeometry x="420" y="260" width="50" height="50" as="geometry" />
        </mxCell>
        <mxCell id="5hOwrHi5-Et3rTQ9NOOK-16" style="edgeStyle=orthogonalEdgeStyle;rounded=0;orthogonalLoop=1;jettySize=auto;html=1;entryX=0.5;entryY=0;entryDx=0;entryDy=0;" edge="1" parent="1" source="5hOwrHi5-Et3rTQ9NOOK-11" target="5hOwrHi5-Et3rTQ9NOOK-15">
          <mxGeometry relative="1" as="geometry" />
        </mxCell>
        <mxCell id="5hOwrHi5-Et3rTQ9NOOK-11" value="&lt;span style=&quot;font-size: 16px;&quot;&gt;6&lt;/span&gt;" style="whiteSpace=wrap;html=1;aspect=fixed;" vertex="1" parent="1">
          <mxGeometry x="340" y="350" width="50" height="50" as="geometry" />
        </mxCell>
        <mxCell id="5hOwrHi5-Et3rTQ9NOOK-15" value="&lt;font style=&quot;font-size: 16px;&quot;&gt;7&lt;/font&gt;" style="whiteSpace=wrap;html=1;aspect=fixed;" vertex="1" parent="1">
          <mxGeometry x="340" y="440" width="50" height="50" as="geometry" />
        </mxCell>
      </root>
    </mxGraphModel>
  </diagram>
</mxfile>
